<?xml version="1.0" standalone="no"?>
<!DOCTYPE svg PUBLIC "-//W3C//DTD SVG 20010904//EN"
 "http://www.w3.org/TR/2001/REC-SVG-20010904/DTD/svg10.dtd">
<svg version="1.0" xmlns="http://www.w3.org/2000/svg"
 width="1024.000000pt" height="1024.000000pt" viewBox="0 0 1024.000000 1024.000000"
 preserveAspectRatio="xMidYMid meet">

<g transform="translate(0.000000,1024.000000) scale(0.100000,-0.100000)"
fill="#000000" stroke="none">
<path d="M3372 8508 c-9 -9 -12 -180 -12 -708 l0 -697 23 -10 c26 -12 300
-203 406 -282 40 -31 85 -65 100 -75 14 -11 112 -88 216 -171 105 -83 246
-194 315 -246 69 -53 155 -118 190 -145 362 -280 551 -423 643 -484 210 -140
638 -461 635 -476 -3 -10 -198 -160 -378 -289 -30 -21 -130 -94 -222 -162
-166 -121 -357 -258 -683 -489 -93 -66 -206 -146 -250 -177 -44 -31 -144 -103
-223 -159 -78 -57 -159 -115 -180 -129 -121 -84 -551 -395 -570 -412 l-23 -21
2 -747 c1 -715 2 -747 19 -752 28 -7 102 40 975 618 160 105 392 259 517 341
806 531 1926 1272 2518 1667 239 160 571 381 738 492 l302 202 -83 59 c-46 32
-238 160 -426 284 -188 124 -590 390 -894 591 -585 387 -838 554 -1242 820
-137 90 -419 277 -627 414 -208 138 -498 329 -645 426 -148 97 -394 260 -548
361 -374 247 -564 368 -576 368 -3 0 -10 -5 -17 -12z"/>
<path d="M2881 6449 c-29 -5 -94 -23 -145 -41 -185 -63 -310 -140 -449 -277
-108 -105 -161 -178 -230 -316 -76 -151 -98 -238 -104 -401 -6 -169 7 -287 48
-409 61 -181 139 -305 284 -450 161 -162 326 -256 545 -311 193 -49 383 -42
577 22 333 109 583 346 707 672 49 128 69 242 69 392 -1 151 -13 227 -57 362
-58 175 -145 310 -289 451 -151 147 -336 247 -550 297 -96 22 -300 26 -406 9z"/>
</g>
</svg>
